<svg width="24" height="24" viewBox="0 0 24 24" fill="none" xmlns="http://www.w3.org/2000/svg">
<path fill-rule="evenodd" clip-rule="evenodd" d="M17.5433 4.70394C17.2418 3.97598 16.7998 3.31455 16.2426 2.7574L16.9498 2.05029C17.5998 2.7003 18.1153 3.47198 18.4671 4.32125C18.8189 5.17055 19 6.0808 19 7.00005C19 7.9193 18.8189 8.82955 18.4671 9.67885C18.1153 10.5281 17.5998 11.2998 16.9498 11.9498L16.2426 11.2427C16.7998 10.6855 17.2418 10.0241 17.5433 9.29615C17.8448 8.5682 18 7.78795 18 7.00005C18 6.2121 17.8448 5.4319 17.5433 4.70394ZM14.7717 5.852C14.6209 5.48805 14.3999 5.1573 14.1213 4.87874L14.8285 4.17163C15.1999 4.54306 15.4945 4.98402 15.6955 5.4693C15.8966 5.95465 16 6.47475 16 7.00005C16 7.52535 15.8966 8.0455 15.6955 8.5308C15.4945 9.0161 15.1999 9.45705 14.8285 9.8285L14.1213 9.1214C14.3999 8.8428 14.6209 8.5121 14.7717 8.1481C14.9224 7.78415 15 7.394 15 7.00005C15 6.6061 14.9224 6.216 14.7717 5.852ZM9.8787 4.87874C9.6001 5.1573 9.37915 5.48805 9.22835 5.852C9.0776 6.216 9 6.6061 9 7.00005C9 7.394 9.0776 7.78415 9.22835 8.1481C9.37915 8.5121 9.6001 8.8428 9.8787 9.1214L9.17155 9.8285C8.80015 9.45705 8.5055 9.0161 8.3045 8.5308C8.10345 8.0455 8 7.52535 8 7.00005C8 6.47475 8.10345 5.95465 8.3045 5.4693C8.5055 4.98402 8.80015 4.54306 9.17155 4.17163L9.8787 4.87874ZM7.75735 2.7574C7.2002 3.31455 6.75825 3.97598 6.4567 4.70394C6.1552 5.4319 6 6.2121 6 7.00005C6 7.78795 6.1552 8.5682 6.4567 9.29615C6.75825 10.0241 7.2002 10.6855 7.75735 11.2427L7.05025 11.9498C6.40025 11.2998 5.88465 10.5281 5.53285 9.6788C5.18105 8.82955 5 7.9193 5 7.00005C5 6.0808 5.18105 5.17055 5.53285 4.32125C5.88465 3.47197 6.40025 2.7003 7.05025 2.05029L7.75735 2.7574Z" fill="white"/>
<path d="M13 7C13 7.55225 12.5523 8 12 8C11.4477 8 11 7.55225 11 7C11 6.4477 11.4477 6 12 6C12.5523 6 13 6.4477 13 7Z" fill="white"/>
<path fill-rule="evenodd" clip-rule="evenodd" d="M17.5 13.5H6.5C6.22385 13.5 6 13.7239 6 14V20.5C6 20.7761 6.22385 21 6.5 21H17.5C17.7761 21 18 20.7761 18 20.5V14C18 13.7239 17.7761 13.5 17.5 13.5ZM6.5 12.5C5.67155 12.5 5 13.1715 5 14V20.5C5 21.3284 5.67155 22 6.5 22H17.5C18.3285 22 19 21.3284 19 20.5V14C19 13.1715 18.3285 12.5 17.5 12.5H6.5Z" fill="white"/>
<path fill-rule="evenodd" clip-rule="evenodd" d="M11 15.0003C11 14.7241 10.7761 14.5003 10.5 14.5003H7.87499C7.63664 14.5003 7.43144 14.6685 7.38469 14.9022L7.00969 16.7772C6.97004 16.9755 7.05374 17.1782 7.22179 17.2907C7.38979 17.4032 7.60909 17.4035 7.77734 17.2913C7.88284 17.221 8.34889 17.0003 8.99999 17.0003C9.55229 17.0003 9.99999 17.448 9.99999 18.0003C9.99999 18.5525 9.55229 19.0003 8.99999 19.0003H8.58409C8.29534 19.0003 8.05689 18.8203 7.97024 18.5804C7.87644 18.3207 7.58989 18.1862 7.33014 18.28C7.07044 18.3738 6.93594 18.6604 7.02974 18.9201C7.25869 19.5542 7.87184 20.0003 8.58409 20.0003H8.99999C10.1045 20.0003 11 19.1048 11 18.0003C11 16.8957 10.1045 16.0003 8.99999 16.0003C8.69454 16.0003 8.41369 16.0364 8.16674 16.0911L8.28489 15.5003H10.5C10.7761 15.5003 11 15.2764 11 15.0003ZM16.3369 15.1812C16.5428 15.3653 16.5604 15.6814 16.3763 15.8872C16.1922 16.093 15.8761 16.1107 15.6703 15.9266C15.4372 15.7181 15.152 15.5754 14.8442 15.5141C14.5044 15.4466 14.1522 15.4812 13.8321 15.6138C13.512 15.7464 13.2384 15.9709 13.0459 16.259C12.8534 16.5471 12.7507 16.8858 12.7507 17.2322C12.7507 17.5787 12.8534 17.9174 13.0459 18.2054C13.2384 18.4935 13.512 18.718 13.8321 18.8506C14.1522 18.9832 14.5044 19.0179 14.8442 18.9503C15.0821 18.903 15.3064 18.807 15.5036 18.6697V17.7322H14.5024C14.2263 17.7322 14.0024 17.5084 14.0024 17.2322C14.0024 16.9561 14.2263 16.7322 14.5024 16.7322H16.0036C16.2797 16.7322 16.5036 16.9561 16.5036 17.2322V18.9106C16.5036 19.0529 16.443 19.1884 16.3369 19.2833C15.9708 19.6107 15.5229 19.8349 15.0393 19.9311C14.5055 20.0373 13.9522 19.9828 13.4494 19.7745C12.9466 19.5662 12.5168 19.2135 12.2145 18.761C11.9121 18.3085 11.7507 17.7765 11.7507 17.2322C11.7507 16.688 11.9121 16.156 12.2145 15.7034C12.5168 15.2509 12.9466 14.8982 13.4494 14.69C13.9522 14.4817 14.5055 14.4272 15.0393 14.5334C15.5229 14.6296 15.9708 14.8537 16.3369 15.1812Z" fill="white"/>
</svg>
