<svg width="50" height="51" viewBox="0 0 50 51" fill="none" xmlns="http://www.w3.org/2000/svg">
<rect y="0.5" width="50" height="50" rx="14" fill="#5253F1"/>
<path d="M25.8262 15.2667H25.098C18.4828 15.2667 12.8979 20.648 12.8979 27.4135C12.9047 34.7409 19.2865 40.5719 26.6644 39.4056C29.7077 38.928 32.3181 37.298 34.1659 35.0008C35.9177 32.844 36.9824 30.0902 37.0992 27.1465H29.5359C29.371 29.1276 28.1483 30.905 26.2936 31.5586C23.2089 32.6473 20.3305 30.2447 20.4612 27.2098C20.5642 24.8142 22.6182 22.9946 24.954 22.9946H25.8262C26.4788 22.9946 27.1178 22.9386 27.743 22.826C28.004 22.7838 28.258 22.7276 28.5125 22.6645C28.7184 22.6154 28.9176 22.5591 29.1168 22.4958C29.2816 22.4466 29.4397 22.3905 29.6045 22.3272C29.7351 22.285 29.8655 22.236 29.9893 22.1798C30.1335 22.1235 30.2777 22.0601 30.4152 21.997C30.6144 21.9058 30.8067 21.8144 30.9922 21.7089C31.0197 21.6948 31.0473 21.6809 31.0747 21.6598C31.267 21.5686 31.4526 21.4562 31.6311 21.3437C31.8167 21.2382 31.9883 21.119 32.1601 20.9994C32.1944 20.9784 32.2287 20.9501 32.2563 20.9292C32.4279 20.8098 32.5928 20.6835 32.7577 20.5498C34.0561 19.517 34.6331 18.0981 34.6331 16.6859C34.6331 14.0515 32.6271 11.4451 29.5566 11.4451C29.5566 13.5525 27.887 15.2667 25.8262 15.2667L25.8262 15.2667Z" fill="white"/>
<path d="M15.8745 32.3236C15.8745 33.7708 16.1975 35.1476 16.7745 36.3701C19.3093 38.7446 22.8541 40.0093 26.6666 39.405C28.6177 39.096 30.39 38.323 31.9012 37.1921L31.9012 37.185C32.4576 36.7776 32.9867 36.307 33.4674 35.8009C33.708 35.5412 33.9415 35.2741 34.1682 35.0002C35.92 32.8433 36.9846 30.0895 37.1014 27.1458H29.5381C29.3733 29.1269 28.1506 30.9044 26.2959 31.5579C23.2111 32.6467 20.3327 30.244 20.4635 27.2092C20.5597 24.9892 22.3321 23.2679 24.4478 23.0291C19.6665 23.3173 15.8745 27.3637 15.8745 32.3236L15.8745 32.3236Z" fill="white"/>
<path d="M32.3715 16.6789C32.3715 19.6296 30.4071 22.1094 27.7417 22.826C28.0026 22.7838 28.2566 22.7276 28.5111 22.6645C28.717 22.6154 28.9162 22.5591 29.1154 22.4958C29.2803 22.4466 29.4383 22.3905 29.6032 22.3272C29.7337 22.285 29.8641 22.236 29.9879 22.1798C30.1322 22.1235 30.2763 22.0601 30.4138 21.997C30.613 21.9058 30.8053 21.8144 30.9909 21.709C31.0183 21.6949 31.0459 21.6809 31.0733 21.6598C31.2656 21.5686 31.4512 21.4562 31.6297 21.3437C31.8153 21.2382 31.9869 21.119 32.1587 20.9994C32.193 20.9784 32.2273 20.9502 32.2549 20.9292C32.4265 20.8098 32.5915 20.6835 32.7563 20.5498C34.0547 19.517 34.6318 18.0981 34.6318 16.6859C34.6318 14.0515 32.6257 11.4451 29.5552 11.4451C31.1763 12.5901 32.3715 14.5082 32.3715 16.6789V16.6789Z" fill="white"/>
<path d="M29.5386 27.1462C29.5386 27.1462 36.1058 29.036 31.9016 37.1855C32.458 36.778 32.9872 36.3075 33.4679 35.8013C33.7085 35.5416 33.942 35.2745 34.1686 35.0006C35.9204 32.8438 36.9851 30.0899 37.1019 27.1462H29.5386H29.5386Z" fill="white"/>
</svg>
