<svg width="126" height="31" viewBox="0 0 126 31" fill="none" xmlns="http://www.w3.org/2000/svg">
<path d="M13.7685 3.82165H13.0404C6.42516 3.82165 0.840332 9.20294 0.840332 15.9684C0.84705 23.2957 7.2289 29.1268 14.6067 27.9605C17.65 27.4829 20.2604 25.8529 22.1083 23.5557C23.8601 21.3989 24.9247 18.6451 25.0415 15.7014H17.4782C17.3134 17.6825 16.0907 19.4599 14.2359 20.1135C11.1512 21.2022 8.27283 18.7996 8.4036 15.7647C8.50654 13.3691 10.5605 11.5495 12.8963 11.5495H13.7685C14.4212 11.5495 15.0602 11.4935 15.6854 11.3809C15.9464 11.3387 16.2004 11.2825 16.4548 11.2194C16.6607 11.1703 16.8599 11.114 17.0591 11.0507C17.224 11.0015 17.382 10.9454 17.5469 10.8821C17.6774 10.8399 17.8078 10.7909 17.9317 10.7347C18.0759 10.6784 18.22 10.615 18.3575 10.5519C18.5567 10.4607 18.749 10.3694 18.9346 10.2639C18.962 10.2497 18.9896 10.2359 19.017 10.2147C19.2093 10.1235 19.395 10.0112 19.5734 9.89859C19.759 9.79309 19.9306 9.67389 20.1024 9.55427C20.1367 9.53328 20.171 9.50505 20.1986 9.48411C20.3702 9.36468 20.5352 9.23842 20.7 9.10468C21.9984 8.07195 22.5755 6.65297 22.5755 5.24087C22.5755 2.60639 20.5695 0 17.4989 0C17.4989 2.10739 15.8294 3.82165 13.7685 3.82165L13.7685 3.82165Z" fill="#5253F1"/>
<path d="M3.81445 20.8797C3.81445 22.3269 4.13748 23.7037 4.71441 24.9263C7.24921 27.3007 10.7941 28.5654 14.6066 27.9611C16.5576 27.6521 18.3299 26.8792 19.8411 25.7482L19.8411 25.7412C20.3975 25.3337 20.9267 24.8632 21.4073 24.357C21.6479 24.0973 21.8815 23.8302 22.1081 23.5563C23.8599 21.3995 24.9245 18.6457 25.0413 15.702H17.4781C17.3132 17.6831 16.0905 19.4605 14.2358 20.114C11.1511 21.2028 8.27266 18.8001 8.40344 15.7653C8.49965 13.5453 10.272 11.824 12.3877 11.5852C7.60642 11.8734 3.81445 15.9198 3.81445 20.8797L3.81445 20.8797Z" fill="#5253F1"/>
<path d="M20.3151 5.23381C20.3151 8.18452 18.3507 10.6643 15.6853 11.3809C15.9463 11.3387 16.2003 11.2825 16.4547 11.2194C16.6606 11.1703 16.8598 11.114 17.059 11.0507C17.2239 11.0015 17.3819 10.9454 17.5468 10.8821C17.6773 10.8399 17.8077 10.7909 17.9315 10.7347C18.0758 10.6784 18.2199 10.615 18.3574 10.5519C18.5566 10.4607 18.7489 10.3694 18.9345 10.2639C18.9619 10.2498 18.9895 10.2359 19.0169 10.2147C19.2092 10.1235 19.3948 10.0112 19.5733 9.89859C19.7589 9.79309 19.9305 9.67389 20.1023 9.55427C20.1366 9.53333 20.1709 9.5051 20.1985 9.48411C20.3701 9.36468 20.535 9.23842 20.6999 9.10468C21.9983 8.07195 22.5754 6.65298 22.5754 5.24087C22.5754 2.60639 20.5693 0 17.4988 0C19.1199 1.14506 20.3151 3.06308 20.3151 5.23381V5.23381Z" fill="#5253F1"/>
<path d="M17.4783 15.7015C17.4783 15.7015 24.0455 17.5913 19.8413 25.7407C20.3977 25.3333 20.9269 24.8627 21.4075 24.3566C21.6482 24.0969 21.8817 23.8298 22.1083 23.5559C23.8601 21.3991 24.9248 18.6452 25.0415 15.7015H17.4783H17.4783Z" fill="#5253F1"/>
<path d="M31.466 14.5311C31.466 17.1691 33.2498 18.7404 35.4723 18.7404C40.7406 18.7404 40.7406 10.3498 35.4723 10.3498C33.2498 10.3498 31.466 11.8935 31.466 14.5311ZM39.5883 7.62834H42.7988V21.4627H39.6429L39.4784 19.442C38.7102 21.0698 36.5976 21.8554 35.0881 21.8837C31.0819 21.9119 28.1188 19.3863 28.1188 14.5311C28.1188 9.76062 31.2192 7.26326 35.1703 7.2915C36.9818 7.2915 38.7102 8.16108 39.4784 9.53671L39.5883 7.62834L39.5883 7.62834Z" fill="#5253F1"/>
<path d="M45.6272 1.84766H48.9473V21.4627H45.6272V1.84766Z" fill="#5253F1"/>
<path d="M51.8835 1.84766H55.2033V21.4627H51.8835V1.84766Z" fill="#5253F1"/>
<path d="M69.4731 14.5598C69.4731 12.3993 68.0465 10.6315 65.6319 10.6315C63.2166 10.6315 61.79 12.3993 61.79 14.5598C61.79 16.7209 63.3541 18.4887 65.6319 18.4887C67.909 18.4887 69.4731 16.7209 69.4731 14.5598ZM58.1409 27.2438V7.6288H61.2685L61.4882 9.53717C62.5312 7.99349 64.3421 7.32019 65.8786 7.32019C70.0492 7.32019 72.821 10.4909 72.821 14.5598C72.821 18.6011 70.3242 21.8 65.9885 21.8C64.5618 21.8 62.4486 21.3508 61.4882 19.8354V27.2438H58.1409V27.2438Z" fill="#5253F1"/>
<path d="M75.2922 1.84766H78.612V21.4627H75.2922V1.84766Z" fill="#5253F1"/>
<path d="M84.1558 14.5311C84.1558 17.1691 85.9397 18.7404 88.1622 18.7404C93.4307 18.7404 93.4307 10.3498 88.1622 10.3498C85.9397 10.3498 84.1558 11.8935 84.1558 14.5311ZM92.2782 7.62834H95.4887V21.4627H92.3328L92.1683 19.442C91.4 21.0698 89.2868 21.8554 87.778 21.8837C83.7718 21.9119 80.8081 19.3863 80.8081 14.5311C80.8081 9.76062 83.9085 7.26326 87.8602 7.2915C89.6711 7.2915 91.4 8.16108 92.1683 9.53671L92.2782 7.62834L92.2782 7.62834Z" fill="#5253F1"/>
<path d="M108.277 21.4629V14.2232C108.277 12.1184 107.152 10.519 105.012 10.519C102.954 10.519 101.554 12.2866 101.554 14.3913V21.4629H98.2338V7.60021H101.225L101.444 9.48035C102.816 8.10551 104.188 7.40393 105.89 7.40393C109.072 7.40393 111.624 9.84486 111.624 14.195V21.4629H108.277V21.4629Z" fill="#5253F1"/>
<path d="M123.343 11.3037C122.382 10.3774 121.285 10.0688 119.996 10.0688C118.404 10.0688 117.526 10.5739 117.526 11.4437C117.526 12.3417 118.322 12.8468 120.05 12.9591C122.602 13.1279 125.84 13.7171 125.84 17.3931C125.84 19.8343 123.892 21.9389 120.022 21.9389C117.882 21.9389 115.742 21.5742 113.767 19.4696L115.413 17.0278C116.373 18.1223 118.568 18.9363 120.078 18.9645C121.34 18.9927 122.52 18.3194 122.52 17.309C122.52 16.3545 121.752 15.9618 119.83 15.8495C117.279 15.653 114.233 14.6993 114.233 11.556C114.233 8.35688 117.471 7.23474 119.94 7.23474C122.054 7.23474 123.645 7.65534 125.209 9.05842L123.343 11.3037H123.343Z" fill="#5253F1"/>
<path d="M104.244 27.2563C104.244 29.2131 105.609 30.4095 107.303 30.4095C108.998 30.4095 110.362 29.2131 110.362 27.2563C110.362 25.2997 108.998 24.0532 107.303 24.0532C105.609 24.0532 104.244 25.2997 104.244 27.2563ZM104.83 27.2563C104.83 25.661 105.938 24.6268 107.303 24.6268C108.668 24.6268 109.777 25.661 109.777 27.2563C109.777 28.8517 108.668 29.8115 107.303 29.8115C105.938 29.8115 104.83 28.8517 104.83 27.2563Z" fill="#F3F3F3"/>
</svg>
