<?xml version="1.0" standalone="no"?>
<!DOCTYPE svg PUBLIC "-//W3C//DTD SVG 20010904//EN"
 "http://www.w3.org/TR/2001/REC-SVG-20010904/DTD/svg10.dtd">
<svg version="1.0" xmlns="http://www.w3.org/2000/svg"
 width="459.000000pt" height="112.000000pt" viewBox="0 0 459.000000 112.000000"
 preserveAspectRatio="xMidYMid meet">

<g transform="translate(0.000000,112.000000) scale(0.100000,-0.100000)"
fill="#000000" stroke="none">
<path d="M610 1102 c0 -32 -36 -85 -71 -104 -21 -11 -55 -18 -89 -18 -199 -1
-385 -144 -434 -335 -62 -234 77 -478 309 -540 241 -66 489 91 550 346 8 35
15 70 15 77 0 9 -34 12 -139 12 l-139 0 -7 -29 c-11 -51 -59 -107 -109 -126
-114 -44 -225 43 -214 166 10 96 67 137 213 149 102 9 163 31 227 82 88 69
101 185 31 268 -47 56 -143 91 -143 52z"/>
<path d="M1640 690 l0 -361 63 3 62 3 3 358 2 357 -65 0 -65 0 0 -360z"/>
<path d="M1870 690 l0 -361 63 3 62 3 3 358 2 357 -65 0 -65 0 0 -360z"/>
<path d="M2730 690 l0 -360 59 0 c44 0 60 4 65 16 3 9 6 171 6 360 l0 344 -65
0 -65 0 0 -360z"/>
<path d="M4328 849 c-109 -16 -174 -83 -164 -167 11 -84 64 -123 196 -142 90
-13 120 -35 102 -74 -24 -53 -129 -53 -219 0 l-42 24 -26 -37 c-14 -21 -25
-43 -25 -49 0 -15 66 -58 115 -74 52 -18 170 -16 216 4 79 34 123 119 100 196
-21 69 -75 100 -204 115 -54 6 -97 30 -97 53 0 48 107 68 175 32 l40 -21 33
36 c17 19 32 38 32 43 0 17 -82 54 -133 61 -29 4 -73 3 -99 0z"/>
<path d="M1160 837 c-19 -6 -55 -32 -81 -57 -118 -114 -99 -340 36 -425 85
-53 210 -46 275 15 l30 28 0 -34 0 -34 60 0 60 0 0 255 0 255 -60 0 -60 0 0
-32 0 -31 -22 20 c-57 51 -151 67 -238 40z m180 -116 c49 -26 73 -71 73 -138
0 -88 -58 -148 -143 -148 -85 0 -143 60 -143 148 0 123 109 194 213 138z"/>
<path d="M2305 831 c-22 -10 -46 -25 -54 -34 -20 -25 -31 -21 -31 13 l0 30
-60 0 -60 0 0 -360 0 -360 65 0 65 0 0 132 c0 129 0 131 19 114 28 -26 89 -45
142 -46 95 0 176 49 222 135 31 58 31 202 0 260 -60 113 -200 166 -308 116z
m135 -116 c119 -62 95 -246 -36 -271 -56 -10 -120 19 -144 67 -54 105 7 217
118 219 18 0 46 -7 62 -15z"/>
<path d="M3075 826 c-61 -28 -87 -56 -115 -120 -25 -56 -29 -158 -9 -227 18
-58 91 -133 144 -148 87 -24 181 -7 232 41 l23 21 6 -31 c6 -31 8 -32 60 -32
l54 0 0 255 0 255 -55 0 c-54 0 -56 -1 -62 -31 l-6 -30 -26 25 c-36 34 -72 46
-139 46 -39 0 -73 -8 -107 -24z m206 -109 c101 -67 85 -240 -26 -277 -103 -34
-195 38 -195 153 0 113 130 185 221 124z"/>
<path d="M3795 838 c-16 -6 -44 -21 -62 -34 -40 -31 -43 -30 -43 6 l0 30 -60
0 -60 0 2 -252 3 -253 62 -3 62 -3 3 166 3 167 37 34 c51 46 112 48 160 5 l33
-29 3 -172 3 -171 62 3 62 3 0 165 c0 183 -8 220 -58 277 -56 63 -138 87 -212
61z"/>
<path d="M3599 201 c-25 -25 -29 -37 -29 -81 0 -44 4 -56 29 -81 23 -23 38
-29 71 -29 42 0 80 14 80 30 0 4 -18 1 -40 -7 -33 -13 -44 -14 -70 -3 -82 34
-76 155 8 181 32 9 44 8 70 -5 18 -9 32 -12 32 -7 0 17 -36 31 -80 31 -33 0
-48 -6 -71 -29z"/>
<path d="M3847 219 c-43 -25 -60 -106 -32 -159 19 -37 43 -50 94 -50 82 0 133
86 97 162 -10 20 -28 40 -42 47 -31 14 -93 14 -117 0z m124 -28 c62 -62 24
-166 -60 -166 -58 0 -94 37 -94 96 0 35 6 48 32 71 42 38 83 37 122 -1z"/>
<path d="M4223 223 c37 -2 67 -8 67 -12 0 -4 -29 -49 -65 -99 -36 -50 -65 -93
-65 -96 0 -3 37 -5 83 -4 l82 2 -67 3 c-38 2 -68 8 -68 12 0 4 29 49 65 99 36
50 65 93 65 96 0 3 -37 5 -82 4 l-83 -2 68 -3z"/>
<path d="M4407 210 c-79 -62 -39 -200 59 -200 36 0 84 18 84 32 0 18 19 7 23
-14 2 -13 4 29 4 92 0 63 -2 105 -4 93 -4 -22 -23 -33 -23 -15 0 14 -48 32
-84 32 -18 0 -45 -9 -59 -20z m133 -25 c38 -38 35 -98 -8 -136 -36 -33 -60
-36 -102 -14 -35 18 -50 43 -50 82 1 90 97 131 160 68z"/>
<path d="M3496 33 c-11 -11 -6 -23 9 -23 8 0 15 4 15 9 0 13 -16 22 -24 14z"/>
<path d="M4070 20 c0 -5 5 -10 10 -10 6 0 10 5 10 10 0 6 -4 10 -10 10 -5 0
-10 -4 -10 -10z"/>
</g>
</svg>
