<svg width="60" height="60" viewBox="0 0 60 60" fill="none" xmlns="http://www.w3.org/2000/svg">
<path d="M15.275 43.75C9.74996 38.575 5 31.2 5 21.7C5 13.975 11.225 7.72507 18.9 7.72507C23.45 7.72507 27.475 9.92504 30 13.325C32.525 9.92504 36.575 7.72507 41.1 7.72507C43.975 7.72507 46.65 8.59997 48.875 10.125" stroke="black" stroke-width="3" stroke-linecap="round" stroke-linejoin="round"/>
<path d="M54.3497 17.5C54.7747 18.825 54.9998 20.25 54.9998 21.725C54.9998 39.225 38.7997 49.55 31.5497 52.05C30.6997 52.35 29.2998 52.35 28.4498 52.05C26.8248 51.5 24.7748 50.55 22.5498 49.225" stroke="black" stroke-width="3" stroke-linecap="round" stroke-linejoin="round"/>
<path d="M55 5L5 55" stroke="black" stroke-width="3" stroke-linecap="round" stroke-linejoin="round"/>
</svg>
