<svg width="21" height="20" viewBox="0 0 21 20" fill="none" xmlns="http://www.w3.org/2000/svg">
<path d="M18.5787 15.2751C18.5787 15.5751 18.512 15.8834 18.3703 16.1834C18.2287 16.4834 18.0453 16.7667 17.8037 17.0334C17.3953 17.4834 16.9453 17.8084 16.437 18.0167C15.937 18.2251 15.3953 18.3334 14.812 18.3334C13.962 18.3334 13.0537 18.1334 12.0953 17.7251C11.137 17.3167 10.1787 16.7667 9.22868 16.0751C8.27035 15.3751 7.36201 14.6001 6.49535 13.7417C5.63701 12.8751 4.86201 11.9667 4.17035 11.0167C3.48701 10.0667 2.93701 9.11675 2.53701 8.17508C2.13701 7.22508 1.93701 6.31675 1.93701 5.45008C1.93701 4.88341 2.03701 4.34175 2.23701 3.84175C2.43701 3.33341 2.75368 2.86675 3.19535 2.45008C3.72868 1.92508 4.31201 1.66675 4.92868 1.66675C5.16201 1.66675 5.39535 1.71675 5.60368 1.81675C5.82035 1.91675 6.01201 2.06675 6.16201 2.28341L8.09535 5.00841C8.24535 5.21675 8.35368 5.40841 8.42868 5.59175C8.50368 5.76675 8.54535 5.94175 8.54535 6.10008C8.54535 6.30008 8.48701 6.50008 8.37035 6.69175C8.26201 6.88341 8.10368 7.08341 7.90368 7.28341L7.27034 7.94175C7.17868 8.03341 7.13701 8.14175 7.13701 8.27508C7.13701 8.34175 7.14535 8.40008 7.16201 8.46675C7.18701 8.53341 7.21201 8.58341 7.22868 8.63341C7.37868 8.90841 7.63701 9.26675 8.00368 9.70008C8.37868 10.1334 8.77868 10.5751 9.21201 11.0167C9.66201 11.4584 10.0953 11.8667 10.537 12.2417C10.9703 12.6084 11.3287 12.8584 11.612 13.0084C11.6537 13.0251 11.7037 13.0501 11.762 13.0751C11.8287 13.1001 11.8953 13.1084 11.9703 13.1084C12.112 13.1084 12.2203 13.0584 12.312 12.9667L12.9453 12.3417C13.1537 12.1334 13.3537 11.9751 13.5453 11.8751C13.737 11.7584 13.9287 11.7001 14.137 11.7001C14.2953 11.7001 14.462 11.7334 14.6453 11.8084C14.8287 11.8834 15.0203 11.9917 15.2287 12.1334L17.987 14.0917C18.2037 14.2417 18.3537 14.4167 18.4453 14.6251C18.5287 14.8334 18.5787 15.0417 18.5787 15.2751Z" stroke="black" stroke-width="1.5" stroke-miterlimit="10"/>
</svg>
