<svg width="19" height="18" viewBox="0 0 19 18" fill="none" xmlns="http://www.w3.org/2000/svg">
<path d="M2.1665 1.5H3.47151C4.28151 1.5 4.91901 2.1975 4.85151 3L4.229 10.47C4.124 11.6925 5.0915 12.7425 6.3215 12.7425H14.309C15.389 12.7425 16.334 11.8575 16.4165 10.785L16.8215 5.16C16.9115 3.915 15.9665 2.9025 14.714 2.9025H5.03151" stroke="white" stroke-width="1.5" stroke-miterlimit="10" stroke-linecap="round" stroke-linejoin="round"/>
<path d="M12.854 16.5C13.3718 16.5 13.7915 16.0803 13.7915 15.5625C13.7915 15.0447 13.3718 14.625 12.854 14.625C12.3362 14.625 11.9165 15.0447 11.9165 15.5625C11.9165 16.0803 12.3362 16.5 12.854 16.5Z" stroke="white" stroke-width="1.5" stroke-miterlimit="10" stroke-linecap="round" stroke-linejoin="round"/>
<path d="M6.854 16.5C7.37177 16.5 7.7915 16.0803 7.7915 15.5625C7.7915 15.0447 7.37177 14.625 6.854 14.625C6.33624 14.625 5.9165 15.0447 5.9165 15.5625C5.9165 16.0803 6.33624 16.5 6.854 16.5Z" stroke="white" stroke-width="1.5" stroke-miterlimit="10" stroke-linecap="round" stroke-linejoin="round"/>
<path d="M7.4165 6H16.4165" stroke="white" stroke-width="1.5" stroke-miterlimit="10" stroke-linecap="round" stroke-linejoin="round"/>
</svg>
