<svg width="10" height="10" viewBox="0 0 10 10" fill="none" xmlns="http://www.w3.org/2000/svg">
<circle cx="5" cy="5" r="5" fill="#5253F1"/>
<path d="M2.49624 5.82938L2.02053 5.35366C1.82649 5.15962 1.82649 4.84038 2.02053 4.64634L2.49624 4.17063C2.57761 4.08925 2.64334 3.92964 2.64334 3.81697V3.14408C2.64334 2.86867 2.86868 2.64334 3.14409 2.64334H3.81697C3.92964 2.64334 4.08926 2.57762 4.17063 2.49625L4.64634 2.02053C4.84038 1.82649 5.15961 1.82649 5.35365 2.02053L5.82937 2.49625C5.91074 2.57762 6.07035 2.64334 6.18302 2.64334H6.85591C7.13132 2.64334 7.35665 2.86867 7.35665 3.14408V3.81697C7.35665 3.92964 7.42238 4.08925 7.50375 4.17063L7.97947 4.64634C8.17351 4.84038 8.17351 5.15962 7.97947 5.35366L7.50375 5.82938C7.42238 5.91075 7.35665 6.07036 7.35665 6.18303V6.85588C7.35665 7.1313 7.13132 7.35666 6.85591 7.35666H6.18302C6.07035 7.35666 5.91074 7.42238 5.82937 7.50375L5.35365 7.97947C5.15961 8.17351 4.84038 8.17351 4.64634 7.97947L4.17063 7.50375C4.08926 7.42238 3.92964 7.35666 3.81697 7.35666H3.14409C2.86868 7.35666 2.64334 7.1313 2.64334 6.85588V6.18303C2.64334 6.06723 2.57761 5.90762 2.49624 5.82938Z" stroke="white" stroke-width="0.7" stroke-linecap="round" stroke-linejoin="round"/>
<path d="M3.75 6.25L6.25 3.75" stroke="white" stroke-width="0.7" stroke-linecap="round" stroke-linejoin="round"/>
<path d="M5.93469 5.9375H5.94031" stroke="white" stroke-linecap="round" stroke-linejoin="round"/>
<path d="M4.05969 4.0625H4.06531" stroke="white" stroke-linecap="round" stroke-linejoin="round"/>
</svg>
