<svg width="25" height="24" viewBox="0 0 25 24" fill="none" xmlns="http://www.w3.org/2000/svg">
<path d="M12.2749 3V21C8.7749 21 6.17415 16.4195 6.17415 16.4195H3.2749C2.72262 16.4195 2.2749 15.9718 2.2749 15.4195V8.5054C2.2749 7.9531 2.72262 7.5054 3.2749 7.5054H6.17415C6.17415 7.5054 8.7749 3 12.2749 3Z" stroke="black"/>
<path d="M16.2749 7.5C16.5865 7.77825 16.869 8.08985 17.117 8.4294C17.8443 9.4252 18.2749 10.6611 18.2749 12C18.2749 13.3273 17.8517 14.5534 17.1358 15.5447C16.8833 15.8943 16.5945 16.2147 16.2749 16.5" stroke="black"/>
<path d="M17.3931 20.5929C20.3169 18.8477 22.2751 15.6525 22.2751 12C22.2751 8.40425 20.3773 5.25175 17.5286 3.48953" stroke="black"/>
</svg>
