<svg width="157" height="43" viewBox="0 0 157 43" fill="none" xmlns="http://www.w3.org/2000/svg">
<path d="M110.941 34.6378C124.495 43.1718 137.547 42.1678 149.093 34.6378" stroke="#5253F1" stroke-width="3" stroke-linecap="round"/>
<path d="M16.1619 4.77754H15.2515C6.98173 4.77754 0 11.5048 0 19.9625C0.00839849 29.1226 7.9865 36.4121 17.2097 34.9541C21.0142 34.357 24.2775 32.3193 26.5875 29.4476C28.7775 26.7513 30.1085 23.3087 30.2545 19.6287H20.7994C20.5933 22.1053 19.0649 24.3273 16.7462 25.1443C12.8899 26.5054 9.29154 23.5018 9.45503 19.7079C9.58371 16.713 12.1515 14.4383 15.0715 14.4383H16.1619C16.9777 14.4383 17.7765 14.3683 18.5582 14.2276C18.8844 14.1748 19.202 14.1045 19.52 14.0256C19.7775 13.9643 20.0265 13.8939 20.2755 13.8148C20.4816 13.7532 20.6791 13.6832 20.8853 13.604C21.0484 13.5513 21.2115 13.49 21.3663 13.4197C21.5465 13.3493 21.7268 13.2701 21.8987 13.1912C22.1477 13.0772 22.3881 12.963 22.6201 12.8311C22.6543 12.8134 22.6889 12.7961 22.7231 12.7696C22.9635 12.6556 23.1956 12.5152 23.4187 12.3745C23.6507 12.2426 23.8652 12.0936 24.08 11.944C24.1229 11.9178 24.1658 11.8825 24.2003 11.8563C24.4148 11.707 24.621 11.5492 24.8271 11.382C26.4502 10.0909 27.1716 8.31705 27.1716 6.55173C27.1716 3.25831 24.6639 0 20.8253 0C20.8253 2.6345 18.7382 4.77754 16.1618 4.77754L16.1619 4.77754Z" fill="black"/>
<path d="M3.71814 26.1014C3.71814 27.9105 4.12196 29.6317 4.84319 31.16C8.01201 34.1284 12.4435 35.7094 17.2096 34.954C19.6486 34.5676 21.8643 33.6014 23.7535 32.1876L23.7534 32.1788C24.449 31.6694 25.1105 31.0811 25.7114 30.4484C26.0122 30.1237 26.3041 29.7899 26.5874 29.4474C28.7774 26.7511 30.1084 23.3085 30.2544 19.6285H20.7993C20.5932 22.1052 19.0648 24.3272 16.7461 25.1442C12.8898 26.5053 9.29145 23.5016 9.45494 19.7077C9.57522 16.9325 11.7909 14.7806 14.4358 14.4821C8.45857 14.8424 3.71814 19.9009 3.71814 26.1013L3.71814 26.1014Z" fill="black"/>
<path d="M24.3462 6.54291C24.3462 10.2317 21.8904 13.3317 18.5583 14.2276C18.8846 14.1748 19.2021 14.1045 19.5202 14.0256C19.7776 13.9643 20.0266 13.8939 20.2757 13.8148C20.4818 13.7533 20.6793 13.6832 20.8854 13.604C21.0486 13.5513 21.2116 13.49 21.3664 13.4197C21.5467 13.3493 21.7269 13.2701 21.8988 13.1912C22.1478 13.0772 22.3882 12.963 22.6202 12.8312C22.6545 12.8135 22.689 12.7961 22.7233 12.7696C22.9637 12.6556 23.1957 12.5152 23.4189 12.3745C23.6509 12.2426 23.8654 12.0936 24.0801 11.944C24.123 11.9178 24.1659 11.8826 24.2005 11.8563C24.415 11.707 24.6211 11.5492 24.8272 11.382C26.4504 10.0909 27.1718 8.31705 27.1718 6.55173C27.1718 3.25831 24.664 0 20.8255 0C22.852 1.43146 24.3462 3.82923 24.3462 6.54291V6.54291Z" fill="black"/>
<path d="M20.7998 19.6278C20.7998 19.6278 29.0097 21.9903 23.7539 32.1781C24.4495 31.6687 25.111 31.0804 25.7119 30.4477C26.0127 30.123 26.3046 29.7892 26.5879 29.4467C28.7779 26.7504 30.1088 23.3078 30.2548 19.6278H20.7998H20.7998Z" fill="black"/>
<path d="M38.2857 18.1671C38.2857 21.465 40.5157 23.4293 43.2942 23.4293C49.8801 23.4293 49.8801 12.94 43.2942 12.94C40.5157 12.94 38.2857 14.8698 38.2857 18.1671ZM48.4397 9.53784H52.4532V26.8325H48.5079L48.3023 24.3064C47.3419 26.3413 44.7008 27.3235 42.8138 27.3588C37.8056 27.3941 34.1013 24.2367 34.1013 18.1671C34.1013 12.2035 37.9773 9.08145 42.9166 9.11675C45.1812 9.11675 47.3419 10.2038 48.3023 11.9236L48.4397 9.53784L48.4397 9.53784Z" fill="black"/>
<path d="M55.9888 2.31042H60.1394V26.8316H55.9888V2.31042Z" fill="black"/>
<path d="M63.8104 2.31042H67.9605V26.8316H63.8104V2.31042Z" fill="black"/>
<path d="M85.7996 18.2004C85.7996 15.4995 84.0162 13.2895 80.9976 13.2895C77.9783 13.2895 76.1948 15.4995 76.1948 18.2004C76.1948 20.9021 78.1502 23.1121 80.9976 23.1121C83.8443 23.1121 85.7996 20.9021 85.7996 18.2004ZM71.6329 34.057V9.53582H75.5429L75.8176 11.9215C77.1214 9.99174 79.3852 9.15002 81.306 9.15002C86.5199 9.15002 89.9849 13.1138 89.9849 18.2004C89.9849 23.2526 86.8636 27.2516 81.4434 27.2516C79.6599 27.2516 77.0181 26.6901 75.8176 24.7956V34.057H71.6329V34.057Z" fill="black"/>
<path d="M93.074 2.31042H97.2241V26.8316H93.074V2.31042Z" fill="black"/>
<path d="M104.155 18.1671C104.155 21.465 106.385 23.4293 109.164 23.4293C115.75 23.4293 115.75 12.94 109.164 12.94C106.385 12.94 104.155 14.8698 104.155 18.1671ZM114.309 9.53784H118.323V26.8325H114.377L114.172 24.3064C113.211 26.3413 110.57 27.3235 108.683 27.3588C103.675 27.3941 99.9701 24.2367 99.9701 18.1671C99.9701 12.2035 103.846 9.08145 108.786 9.11675C111.05 9.11675 113.211 10.2038 114.172 11.9236L114.309 9.53784L114.309 9.53784Z" fill="black"/>
<path d="M134.309 26.8324V17.7819C134.309 15.1506 132.903 13.1511 130.227 13.1511C127.654 13.1511 125.905 15.3609 125.905 17.992V26.8324H121.754V9.50233H125.494L125.767 11.8527C127.483 10.134 129.198 9.25696 131.325 9.25696C135.304 9.25696 138.494 12.3084 138.494 17.7466V26.8324H134.309V26.8324Z" fill="black"/>
<path d="M153.143 14.1299C151.943 12.9719 150.571 12.5861 148.959 12.5861C146.969 12.5861 145.871 13.2175 145.871 14.3049C145.871 15.4275 146.866 16.0589 149.027 16.1994C152.217 16.4104 156.265 17.147 156.265 21.7425C156.265 24.7942 153.83 27.4253 148.992 27.4253C146.317 27.4253 143.641 26.9693 141.172 24.3383L143.23 21.2858C144.43 22.6541 147.174 23.6716 149.061 23.7069C150.639 23.7422 152.114 22.9004 152.114 21.6373C152.114 20.4441 151.154 19.9531 148.752 19.8127C145.563 19.5671 141.755 18.3748 141.755 14.4453C141.755 10.446 145.803 9.04321 148.89 9.04321C151.532 9.04321 153.521 9.56902 155.476 11.323L153.143 14.1299H153.143Z" fill="black"/>
</svg>
