<svg width="25" height="25" viewBox="0 0 25 25" fill="none" xmlns="http://www.w3.org/2000/svg">
<path d="M12.5 22.5C15.2614 22.5 17.7614 21.3807 19.5711 19.5711C21.3807 17.7614 22.5 15.2614 22.5 12.5C22.5 9.7386 21.3807 7.2386 19.5711 5.42893C17.7614 3.61929 15.2614 2.5 12.5 2.5C9.7386 2.5 7.2386 3.61929 5.42893 5.42893C3.61929 7.2386 2.5 9.7386 2.5 12.5C2.5 15.2614 3.61929 17.7614 5.42893 19.5711C7.2386 21.3807 9.7386 22.5 12.5 22.5Z" stroke="black"/>
<path fill-rule="evenodd" clip-rule="evenodd" d="M12.5 6C13.1904 6 13.75 6.55965 13.75 7.25C13.75 7.94035 13.1904 8.5 12.5 8.5C11.8097 8.5 11.25 7.94035 11.25 7.25C11.25 6.55965 11.8097 6 12.5 6Z" fill="black"/>
<path d="M12.75 17.5V10.5H12.25H11.75" stroke="black"/>
<path d="M11 17.5H14.5" stroke="black"/>
</svg>
