<svg width="25" height="25" viewBox="0 0 25 25" fill="none" xmlns="http://www.w3.org/2000/svg">
<path d="M13.561 19.2176C13.561 19.2176 19.2178 13.5608 20.632 12.1465C22.0462 10.7323 22.7533 7.19676 20.2785 4.72191C17.8036 2.24704 14.2681 2.95414 12.8538 4.36836C11.4396 5.78256 4.01499 13.2072 3.30788 13.9143C2.60078 14.6214 1.54012 17.0963 3.66144 19.2176C5.78275 21.3389 8.25765 20.2783 8.96475 19.5712C9.67185 18.8641 17.45 11.0859 18.1571 10.3788C18.8643 9.67166 19.2178 7.90391 18.1571 6.84321C17.0965 5.78256 15.3287 6.13611 14.6216 6.84321C13.9145 7.55036 7.9041 13.5608 7.9041 13.5608" stroke="#333333"/>
</svg>
