<svg width="32" height="30" viewBox="0 0 32 30" fill="none" xmlns="http://www.w3.org/2000/svg">
<path fill-rule="evenodd" clip-rule="evenodd" d="M26.3194 25.0755V27.502C26.3194 28.1685 26.0471 28.774 25.6084 29.2127C25.1697 29.6514 24.5642 29.9237 23.8978 29.9237H17.9217C17.2553 29.9237 16.6497 29.6514 16.211 29.2127C15.7723 28.774 15.5 28.1685 15.5 27.502V26.9896H14.6976C14.1104 26.9896 13.63 26.5092 13.63 25.922C13.63 25.3349 14.1104 24.8545 14.6976 24.8545H17.3024C17.8896 24.8545 18.37 25.3349 18.37 25.922C18.37 26.5092 17.8896 26.9896 17.3024 26.9896H16.5V27.502C16.5 27.8925 16.6601 28.2478 16.918 28.5057C17.1759 28.7635 17.5312 28.9237 17.9216 28.9237H23.8978C24.2882 28.9237 24.6435 28.7636 24.9014 28.5057C25.1593 28.2478 25.3194 27.8925 25.3194 27.502V25.0755C23.9486 24.8366 22.8979 23.6338 22.8979 22.1974V14.7314C22.8979 13.474 23.7029 12.3956 24.823 11.986V10.8922C24.823 8.46685 23.8301 6.26135 22.2305 4.66173C20.6309 3.0621 18.4253 2.06923 16.0001 2.06923C13.5748 2.06923 11.3692 3.0621 9.76962 4.66173C8.17 6.26135 7.17712 8.46692 7.17712 10.8922V11.986C8.29719 12.3956 9.10219 13.474 9.10219 14.7314V22.1973C9.10219 23.8041 7.78756 25.1187 6.18075 25.1187C4.57394 25.1187 3.25931 23.8041 3.25931 22.1973V14.7314C3.25931 13.474 4.06431 12.3956 5.18437 11.986V10.8922C5.18437 7.91679 6.40087 5.2126 8.36069 3.25279C10.3205 1.29298 13.0246 0.076416 16 0.076416C18.9754 0.076416 21.6796 1.29292 23.6394 3.25279C25.5993 5.21267 26.8158 7.91685 26.8158 10.8922V11.986C27.9359 12.3956 28.7409 13.474 28.7409 14.7314V22.1973C28.7408 23.6338 27.6901 24.8365 26.3194 25.0755ZM30.3097 15.3265H29.7408V22.035H30.3097C30.9644 22.035 31.5 21.4994 31.5 20.8448V16.5167C31.5 15.8621 30.9644 15.3265 30.3097 15.3265ZM1.69025 15.3265H2.25919V22.035H1.69025C1.03556 22.035 0.5 21.4994 0.5 20.8448V16.5167C0.5 15.8621 1.03556 15.3265 1.69025 15.3265Z" fill="#5253F1"/>
</svg>
