<svg width="24" height="25" viewBox="0 0 24 25" fill="none" xmlns="http://www.w3.org/2000/svg">
<path d="M21.74 20.6838L20.88 19.8238C21.33 19.1438 21.59 18.3338 21.59 17.4638C21.59 16.8991 21.4788 16.3399 21.2627 15.8182C21.0466 15.2965 20.7299 14.8225 20.3306 14.4232C19.9313 14.0239 19.4572 13.7072 18.9355 13.4911C18.4138 13.275 17.8547 13.1638 17.29 13.1638C14.91 13.1638 13 15.0938 13 17.4738C12.9985 18.2501 13.2075 19.0122 13.6047 19.6792C14.002 20.3461 14.5727 20.8929 15.256 21.2612C15.9393 21.6296 16.7098 21.8057 17.4853 21.771C18.2608 21.7362 19.0124 21.4918 19.66 21.0638L20.52 21.9238C20.601 22.006 20.6975 22.0713 20.8039 22.1159C20.9104 22.1605 21.0246 22.1834 21.14 22.1834C21.2554 22.1834 21.3697 22.1605 21.4761 22.1159C21.5825 22.0713 21.6791 22.006 21.76 21.9238C22.09 21.5738 22.09 21.0238 21.74 20.6838Z" fill="#5253F1"/>
<path d="M22 8.9058C22 10.0958 21.81 11.1958 21.48 12.2158C21.42 12.4258 21.17 12.4858 20.99 12.3558C19.8927 11.546 18.5638 11.1112 17.2 11.1158C13.73 11.1158 10.9 13.9458 10.9 17.4158C10.9 18.4958 11.18 19.5558 11.71 20.4958C11.87 20.7758 11.68 21.1358 11.38 21.0258C8.97 20.2058 4.1 17.2158 2.52 12.2158C2.19 11.1958 2 10.0958 2 8.9058C2 5.8158 4.49 3.3158 7.56 3.3158C9.37 3.3158 10.99 4.1958 12 5.5458C12.5159 4.85461 13.1857 4.29319 13.9565 3.90609C14.7272 3.51899 15.5775 3.31688 16.44 3.3158C19.51 3.3158 22 5.8158 22 8.9058Z" fill="#5253F1"/>
</svg>
