<svg xmlns="http://www.w3.org/2000/svg" width="129.578" height="31.95" viewBox="0 0 129.578 31.95">
    <defs>
        <style>
            .cls-1{fill:#30aae1}.cls-2{fill:#58595b}
        </style>
    </defs>
    <g id="Group_740" data-name="Group 740" transform="translate(-245 -150)">
        <g id="Group_739" data-name="Group 739" transform="translate(245 150)">
            <path id="Path_1" d="M17.1 29.415V19.91a2.958 2.958 0 0 0-.92-2.269 3.3 3.3 0 0 0-2.33-.859 3.889 3.889 0 0 0-1.778.491 2.924 2.924 0 0 0-1.288 1.1v11.042H7.1V8.259l3.679-.859V15a5.445 5.445 0 0 1 3.863-1.288 6.136 6.136 0 0 1 4.477 1.594 6.246 6.246 0 0 1 1.594 4.6v9.505z" class="cls-1" data-name="Path 1" transform="translate(-7.1 -7.4)"/>
            <path id="Path_2" d="M46.518 26.776H35.541a3.864 3.864 0 0 0 1.288 2.882 4.691 4.691 0 0 0 3.127 1.042 5.035 5.035 0 0 0 3.744-1.287l1.41 2.76c-1.288 1.043-3.128 1.533-5.642 1.533a7.4 7.4 0 0 1-5.581-2.085 7.992 7.992 0 0 1-2.087-5.765 7.762 7.762 0 0 1 2.269-5.887 7.567 7.567 0 0 1 5.4-2.269 7.358 7.358 0 0 1 5.4 2.024 6.838 6.838 0 0 1 2.024 5.09 12.7 12.7 0 0 1-.375 1.962zm-10.854-2.7h7.543a3.352 3.352 0 0 0-3.741-3.376c-2.024 0-3.312 1.109-3.803 3.378z" class="cls-1" data-name="Path 2" transform="translate(-16.653 -11.384)"/>
            <path id="Path_3" d="M59.9 8.259l3.618-.859v17.293c0 1.9.552 3 1.717 3.373a2.993 2.993 0 0 1-2.821 1.594c-1.656 0-2.453-1.1-2.453-3.373V8.259z" class="cls-1" data-name="Path 3" transform="translate(-27.521 -7.4)"/>
            <path id="Path_4" d="M71.8 8.259l3.618-.859v17.293c0 1.9.552 3 1.717 3.373a2.993 2.993 0 0 1-2.821 1.594c-1.656 0-2.453-1.1-2.453-3.373V8.259z" class="cls-1" data-name="Path 4" transform="translate(-32.123 -7.4)"/>
            <path id="Path_5" d="M81.2 25.672a8.372 8.372 0 0 1 2.024-5.764 6.737 6.737 0 0 1 5.4-2.208 7.064 7.064 0 0 1 5.458 2.146 8.364 8.364 0 0 1 1.962 5.826 8.364 8.364 0 0 1-1.966 5.828 7.018 7.018 0 0 1-5.4 2.146 6.9 6.9 0 0 1-5.458-2.208 8.449 8.449 0 0 1-2.02-5.766zm3.741 0c0 3.373 1.226 5.09 3.679 5.09a3 3 0 0 0 2.637-1.349 6.608 6.608 0 0 0 .981-3.741c0-3.373-1.226-5.029-3.679-5.029a3.18 3.18 0 0 0-2.7 1.349 5.962 5.962 0 0 0-.918 3.68z" class="cls-1" data-name="Path 5" transform="translate(-35.759 -11.384)"/>
            <path id="Path_6" d="M110.918 32.97v6.439H107.3v-21.4h3.618v1.043a4.739 4.739 0 0 1 3.312-1.352q7.359 0 7.359 8.095a7.918 7.918 0 0 1-2.024 5.826 7.51 7.51 0 0 1-5.581 2.024 5.786 5.786 0 0 1-3.066-.675zm0-11.222v8.095a3.423 3.423 0 0 0 2.269.8 4.6 4.6 0 0 0 3.557-1.165 5.347 5.347 0 0 0 1.1-3.741q0-2.76-1.1-3.863a4.845 4.845 0 0 0-3.557-1.1 3.169 3.169 0 0 0-2.269.973z" class="cls-2" data-name="Path 6" transform="translate(-45.853 -11.384)"/>
            <path id="Path_7" d="M146.718 26.776h-10.977a3.864 3.864 0 0 0 1.288 2.882 4.691 4.691 0 0 0 3.128 1.043 5.035 5.035 0 0 0 3.741-1.288l1.41 2.76c-1.288 1.043-3.128 1.533-5.642 1.533a7.4 7.4 0 0 1-5.581-2.085A7.992 7.992 0 0 1 132 25.856a7.762 7.762 0 0 1 2.269-5.887 7.567 7.567 0 0 1 5.4-2.269 7.358 7.358 0 0 1 5.4 2.024 6.838 6.838 0 0 1 2.024 5.09 12.7 12.7 0 0 1-.375 1.962zm-10.854-2.7h7.543a3.352 3.352 0 0 0-3.741-3.373c-2.024-.003-3.312 1.106-3.803 3.375z" class="cls-2" data-name="Path 7" transform="translate(-55.406 -11.384)"/>
            <path id="Path_8" d="M158.878 18.259H157.1v-2.882h1.778v-3.128L162.5 10.9v4.477h4.231v2.882H162.5V25a4.242 4.242 0 0 0 .491 2.33 2.149 2.149 0 0 0 1.84.675 4.53 4.53 0 0 0 2.392-.675v3.25a10.985 10.985 0 0 1-3.557.429 4.775 4.775 0 0 1-3.557-1.288 4.955 4.955 0 0 1-1.226-3.679z" class="cls-2" data-name="Path 8" transform="translate(-65.113 -8.754)"/>
            <path id="Path_9" d="M189.057 26.776h-10.978a3.864 3.864 0 0 0 1.288 2.882 4.692 4.692 0 0 0 3.128 1.043 5.035 5.035 0 0 0 3.741-1.288l1.41 2.76c-1.288 1.043-3.128 1.533-5.642 1.533a7.4 7.4 0 0 1-5.581-2.085 7.961 7.961 0 0 1-2.024-5.764 7.762 7.762 0 0 1 2.269-5.887 7.567 7.567 0 0 1 5.4-2.269 7.358 7.358 0 0 1 5.4 2.024 6.838 6.838 0 0 1 2.024 5.09c-.129.428-.192 1.102-.435 1.961zm-10.854-2.7h7.6a3.352 3.352 0 0 0-3.741-3.373c-2.081-.003-3.369 1.106-3.862 3.375z" class="cls-2" data-name="Path 9" transform="translate(-71.804 -11.384)"/>
            <path id="Path_10" d="M210.292 21.318a3.61 3.61 0 0 0-2.085-.613A2.683 2.683 0 0 0 206 21.87a4.327 4.327 0 0 0-.981 2.76v8.77H201.4V18.007h3.618v1.41A5.139 5.139 0 0 1 209 17.7a5.9 5.9 0 0 1 2.821.552z" class="cls-2" data-name="Path 10" transform="translate(-82.247 -11.384)"/>
        </g>
        <path id="Path_352" d="M63.738 54.782A13.091 13.091 0 0 1 52.7 48.71l2.208-1.41a10.45 10.45 0 0 0 17.6.061l2.208 1.41a12.993 12.993 0 0 1-10.977 6.01" class="cls-1" data-name="Path 352" transform="translate(220.264 127.168)"/>
    </g>
</svg>
