<svg width="54" height="40" viewBox="0 0 54 40" fill="none" xmlns="http://www.w3.org/2000/svg">
<path d="M39.3632 26.3574C36.0702 23.4922 31.7694 21.7578 27.0585 21.7578C22.3475 21.7578 18.0467 23.4922 14.7479 26.3633C14.6568 26.4454 14.6011 26.5596 14.5923 26.682C14.5836 26.8043 14.6225 26.9253 14.701 27.0195L16.8104 29.5332C16.9803 29.7324 17.2792 29.7559 17.4784 29.5859C20.0331 27.3359 23.3846 25.9766 27.0585 25.9766C30.7323 25.9766 34.0839 27.3359 36.6385 29.5801C36.8378 29.75 37.1366 29.7266 37.3065 29.5273L39.4159 27.0137C39.58 26.8203 39.5565 26.5273 39.3632 26.3574ZM46.2421 18.1484C41.0448 13.8184 34.3592 11.2109 27.0585 11.2109C19.7577 11.2109 13.0721 13.8184 7.86901 18.1484C7.77383 18.2287 7.71425 18.3434 7.70327 18.4674C7.6923 18.5915 7.73081 18.7148 7.81042 18.8105L9.91979 21.3242C10.0839 21.5234 10.3827 21.5469 10.576 21.3828C15.0467 17.668 20.7948 15.4297 27.0585 15.4297C33.3221 15.4297 39.0702 17.668 43.535 21.3828C43.7342 21.5469 44.0272 21.5234 44.1913 21.3242L46.3007 18.8105C46.4647 18.6113 46.4413 18.3125 46.2421 18.1484ZM53.0799 10.0039C45.9667 4.16797 36.8612 0.664062 26.9413 0.664062C17.0858 0.664062 8.03893 4.12109 0.94323 9.88672C0.894481 9.92588 0.85406 9.97441 0.82435 10.0294C0.794639 10.0845 0.77624 10.1449 0.770233 10.2071C0.764227 10.2694 0.770737 10.3322 0.789378 10.3919C0.808019 10.4516 0.838415 10.5069 0.878777 10.5547L2.98815 13.0684C3.15221 13.2617 3.44518 13.291 3.63854 13.1328C10.0077 7.9707 18.1112 4.88281 26.9413 4.88281C35.8358 4.88281 43.9921 8.01758 50.3788 13.2441C50.578 13.4082 50.871 13.3789 51.035 13.1797L53.1444 10.666C53.3143 10.4668 53.285 10.168 53.0799 10.0039ZM23.2499 35.5859C23.2499 36.5805 23.645 37.5343 24.3482 38.2376C25.0515 38.9408 26.0053 39.3359 26.9999 39.3359C27.9944 39.3359 28.9483 38.9408 29.6515 38.2376C30.3548 37.5343 30.7499 36.5805 30.7499 35.5859C30.7499 34.5914 30.3548 33.6376 29.6515 32.9343C28.9483 32.231 27.9944 31.8359 26.9999 31.8359C26.0053 31.8359 25.0515 32.231 24.3482 32.9343C23.645 33.6376 23.2499 34.5914 23.2499 35.5859Z" fill="black"/>
</svg>
