<svg width="252" height="64" viewBox="0 0 252 64" fill="none" xmlns="http://www.w3.org/2000/svg">
<path d="M83.8629 16.4542H78.0391V42.3155H94.1612V37.2481H83.8629V16.4542Z" fill="#848A9A"/>
<path d="M94.7168 33.5437C94.7168 39.0654 98.481 42.7349 104.163 42.7349C109.809 42.7349 113.573 39.0654 113.573 33.5437C113.573 28.0219 109.809 24.3174 104.163 24.3174C98.481 24.3174 94.7168 28.0219 94.7168 33.5437ZM100.221 33.5086C100.221 30.8877 101.784 29.1403 104.163 29.1403C106.506 29.1403 108.069 30.8877 108.069 33.5086C108.069 36.1648 106.506 37.9122 104.163 37.9122C101.784 37.9122 100.221 36.1648 100.221 33.5086Z" fill="#848A9A"/>
<path d="M114.454 33.2642C114.454 38.5411 117.934 42.1058 122.87 42.1058C125.249 42.1058 127.309 41.267 128.339 39.9042V42.3155C128.339 44.7269 126.812 46.3344 124.113 46.3344C121.698 46.3344 120.029 45.2162 119.923 43.2242H114.383C114.88 48.012 118.644 51.227 123.793 51.227C129.866 51.227 133.701 47.348 133.701 41.1971V24.8418H128.765L128.481 26.624C127.486 25.1912 125.391 24.2477 122.977 24.2477C118.005 24.2477 114.454 27.9171 114.454 33.2642ZM119.994 33.1243C119.994 30.608 121.698 28.9306 123.864 28.9306C126.386 28.9306 128.232 30.5731 128.232 33.1243C128.232 35.6755 126.421 37.4229 123.9 37.4229C121.734 37.4229 119.994 35.6755 119.994 33.1243Z" fill="#848A9A"/>
<path d="M135.295 33.5437C135.295 39.0654 139.059 42.7349 144.741 42.7349C150.387 42.7349 154.151 39.0654 154.151 33.5437C154.151 28.0219 150.387 24.3174 144.741 24.3174C139.059 24.3174 135.295 28.0219 135.295 33.5437ZM140.799 33.5086C140.799 30.8877 142.362 29.1403 144.741 29.1403C147.085 29.1403 148.647 30.8877 148.647 33.5086C148.647 36.1648 147.085 37.9122 144.741 37.9122C142.362 37.9122 140.799 36.1648 140.799 33.5086Z" fill="#848A9A"/>
<path d="M158.865 22.1158C160.57 22.1158 161.955 20.7528 161.955 19.0405C161.955 17.328 160.57 16 158.865 16C157.125 16 155.74 17.328 155.74 19.0405C155.74 20.7528 157.125 22.1158 158.865 22.1158ZM156.095 42.3155H161.6V24.8418H156.095V42.3155Z" fill="#848A9A"/>
<path d="M164.805 50.7029H170.202V40.5682C171.232 41.8962 173.576 42.8048 176.026 42.8048C181.316 42.8048 184.513 38.8208 184.371 33.2991C184.228 27.6725 180.926 24.2826 175.99 24.2826C173.469 24.2826 171.09 25.366 170.095 26.9736L169.811 24.8418H164.805V50.7029ZM170.308 33.5786C170.308 30.9576 172.083 29.2103 174.641 29.2103C177.232 29.2103 178.866 30.9925 178.866 33.5786C178.866 36.1648 177.232 37.9471 174.641 37.9471C172.083 37.9471 170.308 36.1997 170.308 33.5786Z" fill="#848A9A"/>
<path d="M184.953 36.7938C185.095 40.3236 187.936 42.7698 192.411 42.7698C196.708 42.7698 199.691 40.5332 199.691 36.9336C199.691 34.3476 198.129 32.6351 195.215 31.936L192.056 31.1672C190.92 30.8877 190.209 30.608 190.209 29.6994C190.209 28.7908 190.954 28.1967 192.056 28.1967C193.298 28.1967 194.115 29.0005 194.08 30.1887H199.016C198.873 26.5541 196.069 24.2826 192.162 24.2826C188.221 24.2826 185.273 26.5892 185.273 30.0839C185.273 32.4253 186.587 34.3476 190.102 35.2562L193.227 36.0599C194.15 36.3045 194.54 36.7239 194.54 37.318C194.54 38.1917 193.724 38.7509 192.339 38.7509C190.741 38.7509 189.889 38.017 189.889 36.7938H184.953Z" fill="#848A9A"/>
<path d="M208.061 42.7697C210.229 42.7697 212.394 41.7912 213.495 40.3584L213.851 42.3155H219V24.8417H213.531V33.9281C213.531 36.5491 212.75 37.9819 210.229 37.9819C208.274 37.9819 206.997 37.1083 206.997 33.8582V24.8417H201.527V35.8152C201.527 39.9741 203.872 42.7697 208.061 42.7697Z" fill="#848A9A"/>
<path d="M227.671 42.3155V32.7749C227.671 29.8392 229.269 29.0005 230.832 29.0005C232.571 29.0005 233.708 30.049 233.708 32.2157V42.3155H239.105V32.7749C239.105 29.8043 240.668 28.9656 242.23 28.9656C243.97 28.9656 245.142 30.0139 245.142 32.2157V42.3155H250.47V30.8877C250.47 26.9037 248.338 24.2477 243.757 24.2477C241.201 24.2477 239.105 25.4707 238.182 27.3579C237.117 25.4707 235.27 24.2477 232.322 24.2477C230.37 24.2477 228.559 25.1213 227.494 26.5192L227.281 24.8418H222.166V42.3155H227.671Z" fill="#848A9A"/>
<path d="M0 32C0 16.915 0 9.37258 4.76187 4.68629C9.52375 0 17.1879 0 32.5161 0C47.8444 0 55.5084 0 60.2704 4.68629C65.0323 9.37258 65.0323 16.915 65.0323 32C65.0323 47.085 65.0323 54.6274 60.2704 59.3138C55.5084 64 47.8444 64 32.5161 64C17.1879 64 9.52375 64 4.76187 59.3138C0 54.6274 0 47.085 0 32Z" fill="#848A9A"/>
<path d="M39.0202 41.6C39.9182 41.6 40.6625 42.3233 40.4841 43.1894C40.1689 44.719 39.4031 46.1368 38.2651 47.2568C36.7407 48.7571 34.673 49.6 32.517 49.6C30.361 49.6 28.2935 48.7571 26.769 47.2568C25.6309 46.1368 24.8652 44.719 24.5501 43.1894C24.3716 42.3233 25.1159 41.6 26.0138 41.6H39.0202Z" fill="#EEF1FC"/>
<path d="M42.4368 28.4424C41.5694 28.671 41.0383 29.564 41.478 30.3344C41.9409 31.1453 42.5812 31.8529 43.3601 32.4022C44.583 33.2646 46.0719 33.6832 47.5734 33.5862C49.0746 33.4894 50.4954 32.8833 51.5935 31.8712C52.6917 30.859 53.3991 29.5033 53.5955 28.0353C53.7919 26.5673 53.4651 25.0777 52.6706 23.8203C51.8761 22.563 50.663 21.6157 49.2384 21.1397C47.8137 20.6637 46.2654 20.6886 44.8573 21.2102C43.9605 21.5424 43.156 22.0629 42.4956 22.7281C41.8682 23.3603 42.1464 24.3582 42.924 24.8L43.7488 25.2686C45.0031 25.9814 44.7558 27.8309 43.3567 28.1998L42.4368 28.4424Z" fill="#EEF1FC"/>
<path d="M22.5952 28.4424C23.4626 28.671 23.9938 29.564 23.554 30.3344C23.0911 31.1453 22.4509 31.8529 21.6721 32.4022C20.4492 33.2646 18.9601 33.6832 17.4588 33.5862C15.9574 33.4894 14.5367 32.8833 13.4385 31.8712C12.3404 30.859 11.6329 29.5033 11.4365 28.0353C11.2401 26.5673 11.567 25.0777 12.3615 23.8203C13.156 22.563 14.369 21.6157 15.7937 21.1397C17.2184 20.6637 18.7668 20.6886 20.1749 21.2102C21.0715 21.5424 21.8762 22.0629 22.5366 22.7281C23.164 23.3603 22.8856 24.3582 22.108 24.8L21.2832 25.2686C20.0289 25.9814 20.2764 27.8309 21.6754 28.1998L22.5952 28.4424Z" fill="#EEF1FC"/>
</svg>
