<svg width="203" height="64" viewBox="0 0 203 64" fill="none" xmlns="http://www.w3.org/2000/svg">
<path d="M31.1697 3.28204C27.4964 3.28204 23.8588 4.02494 20.4651 5.46805C17.0713 6.91134 13.9878 9.02662 11.3902 11.6933C8.79271 14.3601 6.73234 17.5258 5.32653 21.01C3.92087 24.4943 3.19727 28.2288 3.19727 32C3.19727 35.7712 3.92087 39.5057 5.32653 42.9899C6.73234 46.4742 8.79271 49.6399 11.3902 52.3067C13.9878 54.9734 17.0713 57.0886 20.4651 58.5319C23.8588 59.975 27.4964 60.7179 31.1697 60.7179V46.359C29.333 46.359 27.5143 45.9876 25.8174 45.2659C24.1205 44.5443 22.5787 43.4867 21.2799 42.1533C19.9812 40.82 18.951 39.2371 18.2482 37.495C17.5452 35.7528 17.1835 33.8857 17.1835 32C17.1835 30.1143 17.5452 28.2471 18.2482 26.505C18.951 24.7629 19.9812 23.18 21.2799 21.8466C22.5787 20.5133 24.1205 19.4557 25.8174 18.7341C27.5143 18.0124 29.333 17.641 31.1697 17.641V3.28204Z" fill="#EEF1FC"/>
<path d="M31.1698 41.5726C36.3194 41.5726 40.4939 37.2869 40.4939 32C40.4939 26.7131 36.3194 22.4274 31.1698 22.4274C26.0202 22.4274 21.8457 26.7131 21.8457 32C21.8457 37.2869 26.0202 41.5726 31.1698 41.5726Z" fill="#EEF1FC"/>
<path d="M3.19727 32C3.19727 35.7712 3.92087 39.5057 5.32653 42.9899C6.73234 46.4742 8.79271 49.6399 11.3902 52.3067C13.9878 54.9734 17.0713 57.0887 20.4651 58.5319C23.8588 59.9751 27.4964 60.7179 31.1697 60.7179C34.843 60.7179 38.4806 59.9751 41.8744 58.5319C45.2681 57.0887 48.3517 54.9734 50.9493 52.3067C53.5467 49.6399 55.6071 46.4742 57.0129 42.9899C58.4185 39.5057 59.1421 35.7712 59.1421 32H45.1559C45.1559 33.8857 44.7942 35.7529 44.0912 37.495C43.3884 39.2371 42.3582 40.82 41.0595 42.1534C39.7608 43.4867 38.2189 44.5443 36.522 45.2659C34.8251 45.9876 33.0065 46.359 31.1697 46.359C29.333 46.359 27.5143 45.9876 25.8174 45.2659C24.1205 44.5443 22.5787 43.4867 21.2799 42.1534C19.9812 40.82 18.951 39.2371 18.2482 37.495C17.5452 35.7529 17.1835 33.8857 17.1835 32H3.19727Z" fill="#848A9A"/>
<path d="M40.4941 32C40.4941 29.4612 39.5117 27.0264 37.7631 25.2311C36.0145 23.4358 33.6429 22.4272 31.17 22.4272C28.697 22.4272 26.3254 23.4358 24.5768 25.2311C22.8281 27.0264 21.8457 29.4612 21.8457 32H31.17H40.4941Z" fill="#848A9A"/>
<path d="M73.7515 21.2103H70.2773V41.0257H73.7515V21.2103Z" fill="#EEF1FC"/>
<path d="M76.0195 34.0054C76.0195 38.5912 79.1077 41.422 83.1885 41.422C87.2692 41.422 90.3574 38.5912 90.3574 34.0054C90.3574 29.4195 87.2692 26.5887 83.1885 26.5887C79.1077 26.5887 76.0195 29.4195 76.0195 34.0054ZM79.4937 34.0054C79.4937 31.2878 81.0378 29.7026 83.1885 29.7026C85.3392 29.7026 86.8832 31.2878 86.8832 34.0054C86.8832 36.7229 85.3392 38.3081 83.1885 38.3081C81.0378 38.3081 79.4937 36.7229 79.4937 34.0054Z" fill="#EEF1FC"/>
<path d="M102.773 26.9851V28.8816H102.497C101.67 27.6644 100.346 26.5887 97.9751 26.5887C94.7215 26.5887 91.7988 29.4195 91.7988 33.7789C91.7988 38.1383 94.7215 40.9691 97.9751 40.9691C100.346 40.9691 101.67 39.865 102.442 38.7611H102.718V40.1198C102.718 42.8374 101.174 44.0829 98.9126 44.0829C96.6516 44.0829 95.4936 42.8374 95.0248 41.2237L91.9091 42.6109C92.626 44.7339 94.7215 47.0835 98.9678 47.0835C103.324 47.0835 106.192 44.7339 106.192 40.2047V26.9851H102.773ZM99.0229 37.9118C96.8722 37.9118 95.273 36.3266 95.273 33.7789C95.273 31.2312 96.8722 29.646 99.0229 29.646C101.174 29.646 102.773 31.2312 102.773 33.7789C102.773 36.3266 101.174 37.9118 99.0229 37.9118Z" fill="#EEF1FC"/>
<path d="M108.439 34.0054C108.439 38.5912 111.528 41.422 115.608 41.422C119.689 41.422 122.777 38.5912 122.777 34.0054C122.777 29.4195 119.689 26.5887 115.608 26.5887C111.528 26.5887 108.439 29.4195 108.439 34.0054ZM111.914 34.0054C111.914 31.2878 113.458 29.7026 115.608 29.7026C117.759 29.7026 119.303 31.2878 119.303 34.0054C119.303 36.7229 117.759 38.3081 115.608 38.3081C113.458 38.3081 111.914 36.7229 111.914 34.0054Z" fill="#EEF1FC"/>
<path d="M125.504 22.9087C125.504 24.3525 126.58 25.3432 127.959 25.3432C129.337 25.3432 130.413 24.3525 130.413 22.9087C130.413 21.4651 129.337 20.4742 127.959 20.4742C126.58 20.4742 125.504 21.4651 125.504 22.9087ZM129.695 26.985H126.222V41.0256H129.695V26.985Z" fill="#848A9A"/>
<path d="M132.791 46.6872H136.266V39.214H136.541C137.313 40.3463 138.636 41.422 141.009 41.422C144.261 41.422 147.185 38.5912 147.185 34.0054C147.185 29.4195 144.261 26.5887 141.009 26.5887C138.636 26.5887 137.313 27.6644 136.487 28.8818H136.21V26.9851H132.791V46.6872ZM139.96 38.3647C137.81 38.3647 136.21 36.7795 136.21 34.0054C136.21 31.2312 137.81 29.646 139.96 29.646C142.111 29.646 143.71 31.2312 143.71 34.0054C143.71 36.7795 142.111 38.3647 139.96 38.3647Z" fill="#848A9A"/>
<path d="M149.212 30.9199C149.212 33.6941 151.472 34.7131 154.34 35.2793L155.057 35.4207C156.766 35.7604 157.538 36.1851 157.538 37.091C157.538 37.9968 156.766 38.7044 155.168 38.7044C153.568 38.7044 152.273 38.0251 151.913 35.9869L148.715 36.8361C149.185 39.7801 151.582 41.422 155.168 41.422C158.641 41.422 160.903 39.7519 160.903 36.8079C160.903 33.8637 158.587 33.0713 155.499 32.4485L154.781 32.3069C153.347 32.0238 152.575 31.6275 152.575 30.6934C152.575 29.8442 153.293 29.3063 154.616 29.3063C155.94 29.3063 156.876 29.8724 157.207 31.4011L160.351 30.4104C159.69 28.1458 157.677 26.5887 154.616 26.5887C151.362 26.5887 149.212 28.1458 149.212 30.9199Z" fill="#848A9A"/>
<path d="M176.508 41.0257V26.985H173.035V34.2318C173.035 36.8361 171.795 38.3647 169.67 38.3647C167.795 38.3647 166.748 37.3174 166.748 35.1943V26.985H163.273V35.3641C163.273 38.8461 165.398 41.2521 168.596 41.2521C171.104 41.2521 172.263 40.1198 172.814 38.9309H173.089V41.0257H176.508Z" fill="#848A9A"/>
<path d="M179.59 26.985V41.0256H183.065V32.6465C183.065 30.7216 183.947 29.6459 185.546 29.6459C186.925 29.6459 187.751 30.4385 187.751 31.9672V41.0256H191.226V32.6465C191.226 30.7216 192.109 29.6459 193.707 29.6459C195.087 29.6459 195.913 30.4385 195.913 31.9672V41.0256H199.388V31.7973C199.388 28.4004 197.347 26.7585 194.81 26.7585C192.577 26.7585 191.557 27.7776 190.896 28.9665H190.619C189.984 27.6362 188.854 26.7585 186.869 26.7585C184.884 26.7585 183.808 27.6644 183.285 28.7401H183.009V26.985H179.59Z" fill="#848A9A"/>
</svg>
