<svg width="25" height="24" viewBox="0 0 25 24" fill="none" xmlns="http://www.w3.org/2000/svg">
<path d="M17.9839 10.7899V14.7899C17.9839 15.0499 17.9739 15.2999 17.9439 15.5399C17.7139 18.2399 16.1239 19.5799 13.1939 19.5799H12.7939C12.5439 19.5799 12.3039 19.6999 12.1539 19.8999L10.9539 21.4999C10.4239 22.2099 9.56391 22.2099 9.03391 21.4999L7.83389 19.8999C7.70389 19.7299 7.41391 19.5799 7.19391 19.5799H6.79391C3.60391 19.5799 2.00391 18.7899 2.00391 14.7899V10.7899C2.00391 7.85989 3.35391 6.26989 6.04391 6.03989C6.28391 6.00989 6.53391 5.99988 6.79391 5.99988H13.1939C16.3839 5.99988 17.9839 7.59989 17.9839 10.7899Z" stroke="#EEF1FC" stroke-width="1.5" stroke-miterlimit="10" stroke-linecap="round" stroke-linejoin="round"/>
<path d="M21.9839 6.78989V10.7899C21.9839 13.7299 20.6339 15.3099 17.9439 15.5399C17.9739 15.2999 17.9839 15.0499 17.9839 14.7899V10.7899C17.9839 7.59989 16.3839 5.99988 13.1939 5.99988H6.79395C6.53395 5.99988 6.28395 6.00989 6.04395 6.03989C6.27395 3.34989 7.86395 1.99988 10.7939 1.99988H17.1939C20.3839 1.99988 21.9839 3.59989 21.9839 6.78989Z" stroke="#EEF1FC" stroke-width="1.5" stroke-miterlimit="10" stroke-linecap="round" stroke-linejoin="round"/>
<path d="M13.4994 13.2499H13.5084" stroke="#EEF1FC" stroke-width="2" stroke-linecap="round" stroke-linejoin="round"/>
<path d="M9.99941 13.2499H10.0084" stroke="#EEF1FC" stroke-width="2" stroke-linecap="round" stroke-linejoin="round"/>
<path d="M6.49941 13.2499H6.50841" stroke="#EEF1FC" stroke-width="2" stroke-linecap="round" stroke-linejoin="round"/>
</svg>
