<svg width="21" height="20" viewBox="0 0 21 20" fill="none" xmlns="http://www.w3.org/2000/svg">
<path d="M15.8912 14.0251L16.2162 16.6584C16.2995 17.3501 15.5579 17.8334 14.9662 17.4751L11.4745 15.4001C11.0912 15.4001 10.7162 15.3751 10.3496 15.3251C10.9662 14.6001 11.3329 13.6834 11.3329 12.6917C11.3329 10.3251 9.28288 8.40844 6.74955 8.40844C5.78288 8.40844 4.89122 8.68341 4.14955 9.16675C4.12455 8.95841 4.11621 8.75007 4.11621 8.53341C4.11621 4.74174 7.40788 1.66675 11.4745 1.66675C15.5412 1.66675 18.8329 4.74174 18.8329 8.53341C18.8329 10.7834 17.6745 12.7751 15.8912 14.0251Z" stroke="black" stroke-width="1.5" stroke-linecap="round" stroke-linejoin="round"/>
<path d="M11.3337 12.6917C11.3337 13.6834 10.967 14.6001 10.3503 15.3251C9.52533 16.3251 8.21699 16.9667 6.75033 16.9667L4.57532 18.2584C4.20866 18.4834 3.74199 18.1751 3.79199 17.7501L4.00032 16.1084C2.88366 15.3334 2.16699 14.0917 2.16699 12.6917C2.16699 11.2251 2.95033 9.93342 4.15033 9.16676C4.892 8.68342 5.78366 8.40845 6.75033 8.40845C9.28366 8.40845 11.3337 10.3251 11.3337 12.6917Z" stroke="black" stroke-width="1.5" stroke-linecap="round" stroke-linejoin="round"/>
</svg>
