<svg width="44" height="54" viewBox="0 0 44 54" fill="none" xmlns="http://www.w3.org/2000/svg">
<path d="M42 14.5V39.5C42 49.5 39.5 52 29.5 52H14.5C4.5 52 2 49.5 2 39.5V14.5C2 4.5 4.5 2 14.5 2H29.5C39.5 2 42 4.5 42 14.5Z" stroke="#292D32" stroke-width="3" stroke-linecap="round" stroke-linejoin="round"/>
<path d="M27 10.75H17" stroke="#292D32" stroke-width="3" stroke-linecap="round" stroke-linejoin="round"/>
<path d="M22 44.75C24.1401 44.75 25.875 43.0151 25.875 40.875C25.875 38.7349 24.1401 37 22 37C19.8599 37 18.125 38.7349 18.125 40.875C18.125 43.0151 19.8599 44.75 22 44.75Z" stroke="#292D32" stroke-width="3" stroke-linecap="round" stroke-linejoin="round"/>
</svg>
