<svg width="60" height="60" viewBox="0 0 60 60" fill="none" xmlns="http://www.w3.org/2000/svg">
<path d="M22.5 47.2C24.8 48.2 27.325 48.75 30 48.75C40.35 48.75 48.75 40.35 48.75 30C48.75 27.325 48.2 24.8 47.2 22.5" stroke="black" stroke-width="3.5" stroke-linecap="round" stroke-linejoin="round"/>
<path d="M43.025 16.5C39.65 13.25 35.05 11.25 30 11.25C19.65 11.25 11.25 19.65 11.25 30C11.25 35.025 13.225 39.6 16.45 42.975" stroke="black" stroke-width="3.5" stroke-linecap="round" stroke-linejoin="round"/>
<path d="M30 10V5" stroke="black" stroke-width="3.5" stroke-linecap="round" stroke-linejoin="round"/>
<path d="M10 30H5" stroke="black" stroke-width="3.5" stroke-linecap="round" stroke-linejoin="round"/>
<path d="M30 50V55" stroke="black" stroke-width="3.5" stroke-linecap="round" stroke-linejoin="round"/>
<path d="M50 30H55" stroke="black" stroke-width="3.5" stroke-linecap="round" stroke-linejoin="round"/>
<path d="M35.3 24.7L24.7 35.3C23.35 33.95 22.5 32.075 22.5 30C22.5 25.85 25.85 22.5 30 22.5C32.075 22.5 33.95 23.35 35.3 24.7Z" stroke="black" stroke-width="3.5" stroke-linecap="round" stroke-linejoin="round"/>
<path d="M55 5L5 55" stroke="black" stroke-width="3.5" stroke-linecap="round" stroke-linejoin="round"/>
</svg>
