<svg width="21" height="22" viewBox="0 0 21 22" fill="none" xmlns="http://www.w3.org/2000/svg">
<path d="M14.8271 13.2251C13.6746 12.2223 12.1693 11.6152 10.5205 11.6152C8.87166 11.6152 7.36638 12.2223 6.21179 13.2271C6.17991 13.2559 6.16039 13.2959 6.15733 13.3387C6.15428 13.3815 6.16791 13.4239 6.19539 13.4568L6.93367 14.3366C6.99314 14.4063 7.09773 14.4145 7.16746 14.3551C8.0616 13.5676 9.23464 13.0918 10.5205 13.0918C11.8063 13.0918 12.9794 13.5676 13.8735 14.353C13.9432 14.4125 14.0478 14.4043 14.1073 14.3346L14.8456 13.4548C14.903 13.3871 14.8948 13.2846 14.8271 13.2251ZM17.2347 10.352C15.4157 8.83643 13.0758 7.92383 10.5205 7.92383C7.96521 7.92383 5.62527 8.83643 3.80418 10.352C3.77086 10.3801 3.75001 10.4202 3.74617 10.4636C3.74233 10.507 3.75581 10.5502 3.78367 10.5837L4.52195 11.4635C4.57937 11.5332 4.68396 11.5414 4.75164 11.484C6.31638 10.1838 8.3282 9.40039 10.5205 9.40039C12.7128 9.40039 14.7246 10.1838 16.2873 11.484C16.357 11.5414 16.4595 11.5332 16.517 11.4635L17.2552 10.5837C17.3127 10.514 17.3045 10.4094 17.2347 10.352ZM19.628 7.50137C17.1384 5.45879 13.9514 4.23242 10.4795 4.23242C7.03006 4.23242 3.86365 5.44238 1.38015 7.46035C1.36309 7.47406 1.34895 7.49104 1.33855 7.5103C1.32815 7.52956 1.32171 7.55071 1.31961 7.57249C1.3175 7.59428 1.31978 7.61626 1.32631 7.63716C1.33283 7.65805 1.34347 7.67742 1.3576 7.69414L2.09588 8.57393C2.1533 8.6416 2.25584 8.65185 2.32351 8.59648C4.55271 6.78975 7.38894 5.70898 10.4795 5.70898C13.5926 5.70898 16.4472 6.80615 18.6826 8.63545C18.7523 8.69287 18.8549 8.68262 18.9123 8.61289L19.6506 7.73311C19.71 7.66338 19.6998 7.55879 19.628 7.50137ZM9.18748 16.4551C9.18748 16.8032 9.32576 17.137 9.5719 17.3832C9.81804 17.6293 10.1519 17.7676 10.5 17.7676C10.8481 17.7676 11.1819 17.6293 11.4281 17.3832C11.6742 17.137 11.8125 16.8032 11.8125 16.4551C11.8125 16.107 11.6742 15.7731 11.4281 15.527C11.1819 15.2809 10.8481 15.1426 10.5 15.1426C10.1519 15.1426 9.81804 15.2809 9.5719 15.527C9.32576 15.7731 9.18748 16.107 9.18748 16.4551Z" fill="black"/>
</svg>
