<svg width="30" height="31" viewBox="0 0 30 31" fill="none" xmlns="http://www.w3.org/2000/svg">
<path d="M21.1817 18.9848C19.5352 17.5522 17.3848 16.685 15.0294 16.685C12.6739 16.685 10.5235 17.5522 8.87408 18.9877C8.82853 19.0288 8.80065 19.0859 8.79628 19.1471C8.79191 19.2082 8.81139 19.2687 8.85064 19.3159L9.90533 20.5727C9.99029 20.6723 10.1397 20.684 10.2393 20.5991C11.5167 19.4741 13.1924 18.7944 15.0294 18.7944C16.8663 18.7944 18.542 19.4741 19.8194 20.5961C19.919 20.6811 20.0684 20.6694 20.1534 20.5698L21.2081 19.3129C21.2901 19.2162 21.2784 19.0698 21.1817 18.9848ZM24.6212 14.8803C22.0225 12.7153 18.6797 11.4116 15.0294 11.4116C11.379 11.4116 8.03619 12.7153 5.43463 14.8803C5.38703 14.9205 5.35725 14.9778 5.35176 15.0398C5.34627 15.1018 5.36553 15.1635 5.40533 15.2114L6.46002 16.4682C6.54205 16.5678 6.69146 16.5795 6.78814 16.4975C9.02349 14.6401 11.8975 13.5209 15.0294 13.5209C18.1612 13.5209 21.0352 14.6401 23.2676 16.4975C23.3672 16.5795 23.5137 16.5678 23.5958 16.4682L24.6504 15.2114C24.7325 15.1118 24.7208 14.9623 24.6212 14.8803ZM28.0401 10.808C24.4835 7.89008 19.9307 6.13812 14.9708 6.13812C10.043 6.13812 5.51959 7.86664 1.97174 10.7495C1.94736 10.769 1.92715 10.7933 1.9123 10.8208C1.89744 10.8483 1.88824 10.8785 1.88524 10.9097C1.88224 10.9408 1.88549 10.9722 1.89481 11.002C1.90413 11.0319 1.91933 11.0596 1.93951 11.0834L2.9942 12.3403C3.07623 12.437 3.22271 12.4516 3.31939 12.3725C6.50396 9.79144 10.5557 8.2475 14.9708 8.2475C19.418 8.2475 23.4961 9.81488 26.6895 12.4282C26.7891 12.5102 26.9356 12.4955 27.0176 12.3959L28.0723 11.1391C28.1573 11.0395 28.1426 10.8901 28.0401 10.808ZM13.1251 23.5991C13.1251 24.0963 13.3226 24.5733 13.6742 24.9249C14.0259 25.2765 14.5028 25.4741 15.0001 25.4741C15.4973 25.4741 15.9743 25.2765 16.3259 24.9249C16.6775 24.5733 16.8751 24.0963 16.8751 23.5991C16.8751 23.1018 16.6775 22.6249 16.3259 22.2732C15.9743 21.9216 15.4973 21.7241 15.0001 21.7241C14.5028 21.7241 14.0259 21.9216 13.6742 22.2732C13.3226 22.6249 13.1251 23.1018 13.1251 23.5991Z" fill="black"/>
</svg>
