<svg width="19" height="18" viewBox="0 0 19 18" fill="none" xmlns="http://www.w3.org/2000/svg">
<path d="M7.25 3.75L12.5 3.75" stroke="white" stroke-width="1.5" stroke-linecap="round" stroke-linejoin="round"/>
<path d="M2 3.9375C2 5.28369 3.09131 6.375 4.4375 6.375C5.78369 6.375 6.875 5.28369 6.875 3.9375C6.875 2.59131 5.78369 1.5 4.4375 1.5C3.09131 1.5 2 2.59131 2 3.9375Z" stroke="white" stroke-width="1.5" stroke-linecap="round" stroke-linejoin="round"/>
<path d="M12.5 3.75C12.5 4.99264 13.5074 6 14.75 6C15.9926 6 17 4.99264 17 3.75C17 2.50736 15.9926 1.5 14.75 1.5C13.5074 1.5 12.5 2.50736 12.5 3.75Z" stroke="white" stroke-width="1.5" stroke-linecap="round" stroke-linejoin="round"/>
<path d="M12.5 14.25C12.5 15.4926 13.5074 16.5 14.75 16.5C15.9926 16.5 17 15.4926 17 14.25C17 13.0074 15.9926 12 14.75 12C13.5074 12 12.5 13.0074 12.5 14.25Z" stroke="white" stroke-width="1.5" stroke-linecap="round" stroke-linejoin="round"/>
<path d="M7.25002 3.84741C8.56252 4.18491 9.53753 5.38491 9.53003 6.80241L9.52252 9.37491C9.51502 11.3399 10.775 13.0124 12.53 13.6274" stroke="white" stroke-width="1.5" stroke-linecap="round" stroke-linejoin="round"/>
</svg>
