<svg width="24" height="25" viewBox="0 0 24 25" fill="none" xmlns="http://www.w3.org/2000/svg">
<path d="M16.25 22.6758C16.7141 22.6758 17.1592 22.4914 17.4874 22.1632C17.8156 21.835 18 21.3899 18 20.9258C18 20.4617 17.8156 20.0165 17.4874 19.6883C17.1592 19.3602 16.7141 19.1758 16.25 19.1758C15.7859 19.1758 15.3408 19.3602 15.0126 19.6883C14.6844 20.0165 14.5 20.4617 14.5 20.9258C14.5 21.3899 14.6844 21.835 15.0126 22.1632C15.3408 22.4914 15.7859 22.6758 16.25 22.6758ZM8.25 22.6758C8.71413 22.6758 9.15925 22.4914 9.48744 22.1632C9.81563 21.835 10 21.3899 10 20.9258C10 20.4617 9.81563 20.0165 9.48744 19.6883C9.15925 19.3602 8.71413 19.1758 8.25 19.1758C7.78587 19.1758 7.34075 19.3602 7.01256 19.6883C6.68437 20.0165 6.5 20.4617 6.5 20.9258C6.5 21.3899 6.68437 21.835 7.01256 22.1632C7.34075 22.4914 7.78587 22.6758 8.25 22.6758ZM4.84 4.11578L4.64 6.56578C4.6 7.03578 4.97 7.42578 5.44 7.42578H20.75C21.17 7.42578 21.52 7.10578 21.55 6.68578C21.68 4.91578 20.33 3.47578 18.56 3.47578H6.27C6.17 3.03578 5.97 2.61578 5.66 2.26578C5.16 1.73578 4.46 1.42578 3.74 1.42578H2C1.59 1.42578 1.25 1.76578 1.25 2.17578C1.25 2.58578 1.59 2.92578 2 2.92578H3.74C4.05 2.92578 4.34 3.05578 4.55 3.27578C4.76 3.50578 4.86 3.80578 4.84 4.11578ZM20.51 8.92578H5.17C4.75 8.92578 4.41 9.24578 4.37 9.65578L4.01 14.0058C3.97567 14.4088 4.02539 14.8146 4.15603 15.1974C4.28666 15.5803 4.49536 15.9318 4.7689 16.2298C5.04245 16.5278 5.37488 16.7657 5.74516 16.9286C6.11544 17.0914 6.5155 17.1756 6.92 17.1758H18.04C19.54 17.1758 20.86 15.9458 20.97 14.4458L21.3 9.77578C21.3095 9.66684 21.2961 9.55711 21.2606 9.45369C21.225 9.35026 21.1682 9.25543 21.0938 9.17533C21.0193 9.09523 20.9289 9.03163 20.8284 8.98865C20.7278 8.94566 20.6193 8.92425 20.51 8.92578Z" fill="#5253F1"/>
</svg>
