<svg width="54" height="40" viewBox="0 0 54 40" fill="none" xmlns="http://www.w3.org/2000/svg">
<path d="M39.3636 26.3574C36.0707 23.4922 31.7699 21.7578 27.059 21.7578C22.348 21.7578 18.0472 23.4922 14.7484 26.3633C14.6573 26.4454 14.6015 26.5596 14.5928 26.682C14.5841 26.8043 14.623 26.9253 14.7015 27.0195L16.8109 29.5332C16.9808 29.7324 17.2797 29.7559 17.4789 29.5859C20.0336 27.3359 23.3851 25.9766 27.059 25.9766C30.7328 25.9766 34.0843 27.3359 36.639 29.5801C36.8383 29.75 37.1371 29.7266 37.307 29.5273L39.4164 27.0137C39.5804 26.8203 39.557 26.5273 39.3636 26.3574ZM46.2425 18.1484C41.0453 13.8184 34.3597 11.2109 27.059 11.2109C19.7582 11.2109 13.0726 13.8184 7.8695 18.1484C7.77431 18.2287 7.71474 18.3434 7.70376 18.4674C7.69278 18.5915 7.7313 18.7148 7.81091 18.8105L9.92028 21.3242C10.0843 21.5234 10.3832 21.5469 10.5765 21.3828C15.0472 17.668 20.7953 15.4297 27.059 15.4297C33.3226 15.4297 39.0707 17.668 43.5355 21.3828C43.7347 21.5469 44.0277 21.5234 44.1918 21.3242L46.3011 18.8105C46.4652 18.6113 46.4418 18.3125 46.2425 18.1484ZM53.0804 10.0039C45.9672 4.16797 36.8617 0.664062 26.9418 0.664062C17.0863 0.664062 8.03942 4.12109 0.943718 9.88672C0.894969 9.92588 0.854548 9.97441 0.824838 10.0294C0.795128 10.0845 0.776728 10.1449 0.770722 10.2071C0.764716 10.2694 0.771225 10.3322 0.789866 10.3919C0.808507 10.4516 0.838903 10.5069 0.879265 10.5547L2.98864 13.0684C3.1527 13.2617 3.44567 13.291 3.63903 13.1328C10.0082 7.9707 18.1117 4.88281 26.9418 4.88281C35.8363 4.88281 43.9925 8.01758 50.3793 13.2441C50.5785 13.4082 50.8715 13.3789 51.0355 13.1797L53.1449 10.666C53.3148 10.4668 53.2855 10.168 53.0804 10.0039ZM23.2504 35.5859C23.2504 36.5805 23.6454 37.5343 24.3487 38.2376C25.052 38.9408 26.0058 39.3359 27.0004 39.3359C27.9949 39.3359 28.9487 38.9408 29.652 38.2376C30.3553 37.5343 30.7504 36.5805 30.7504 35.5859C30.7504 34.5914 30.3553 33.6376 29.652 32.9343C28.9487 32.231 27.9949 31.8359 27.0004 31.8359C26.0058 31.8359 25.052 32.231 24.3487 32.9343C23.6454 33.6376 23.2504 34.5914 23.2504 35.5859Z" fill="black"/>
</svg>
