<svg width="24" height="25" viewBox="0 0 24 25" fill="none" xmlns="http://www.w3.org/2000/svg">
<path d="M19.0909 12.7637C18.9309 12.7637 18.7709 12.7137 18.6309 12.6037C14.6009 9.49373 9.39091 9.49373 5.36091 12.6037C5.03091 12.8537 4.56091 12.7937 4.31091 12.4737C4.06091 12.1437 4.12091 11.6737 4.44091 11.4237C9.03091 7.87373 14.9609 7.87373 19.5409 11.4237C19.8709 11.6737 19.9309 12.1437 19.6709 12.4737C19.5409 12.6637 19.3209 12.7637 19.0909 12.7637Z" fill="#5253F1"/>
<path d="M22.0015 9.28373C21.8415 9.28373 21.6815 9.23373 21.5415 9.12373C15.7415 4.64373 8.25148 4.64373 2.46148 9.12373C2.13148 9.37373 1.66148 9.31373 1.41148 8.99373C1.35002 8.91668 1.30458 8.82813 1.27781 8.73328C1.25105 8.63843 1.2435 8.53919 1.25561 8.44139C1.26772 8.34358 1.29924 8.24917 1.34833 8.16372C1.39742 8.07826 1.46309 8.00347 1.54148 7.94373C7.89148 3.03373 16.1015 3.03373 22.4615 7.94373C22.7915 8.19373 22.8515 8.66373 22.5915 8.99373C22.4515 9.18373 22.2215 9.28373 22.0015 9.28373ZM17.2115 16.4167C17.0515 16.4167 16.8915 16.3667 16.7515 16.2567C13.8715 14.0267 10.1415 14.0267 7.25148 16.2567C6.92148 16.5067 6.45148 16.4467 6.20148 16.1267C5.95148 15.7967 6.01148 15.3267 6.33148 15.0767C9.77148 12.4167 14.2215 12.4167 17.6615 15.0767C17.9915 15.3267 18.0515 15.7967 17.7915 16.1267C17.7242 16.2171 17.6367 16.2904 17.536 16.3407C17.4352 16.3911 17.3241 16.4171 17.2115 16.4167ZM14.6015 20.0757C14.4415 20.0757 14.2815 20.0257 14.1415 19.9157C12.8415 18.9057 11.1515 18.9057 9.85148 19.9157C9.52148 20.1657 9.05148 20.1057 8.80148 19.7857C8.55148 19.4557 8.61148 18.9857 8.93148 18.7357C10.7915 17.2957 13.1915 17.2957 15.0515 18.7357C15.3815 18.9857 15.4415 19.4557 15.1815 19.7857C15.1142 19.8761 15.0267 19.9494 14.926 19.9997C14.8252 20.0501 14.7141 20.0761 14.6015 20.0757Z" fill="#5253F1"/>
</svg>
